<svg xmlns="http://www.w3.org/2000/svg" width="450" height="450" fill="none" viewBox="0 0 450 450">
  <circle cx="225" cy="225" r="225" fill="#fff"/>
  <path fill="#000" fill-rule="evenodd" d="M93.7 86v172h41.6v-56.4c0-3.467.7-6.467 2.1-9 1.4-2.533 3.367-4.5 5.9-5.9 2.533-1.4 5.467-2.1 8.8-2.1 5.067 0 9.133 1.567 12.2 4.7 3.067 3.067 4.6 7.167 4.6 12.3V258h41.6v-65.4c0-7.667-1.8-14.5-5.4-20.5-3.6-6.067-8.5-10.867-14.7-14.4-6.133-3.533-13.1-5.3-20.9-5.3-6.133 0-12.2 1.133-18.2 3.4-5.933 2.2-11.267 5.333-16 9.4V86H93.7Zm180.144 194.737L290.3 310.1l25.1-48H356l-53.1 102.4h-24.5l-24.7-45.2-24.7 45.2h-24.5l-53.1-102.4H192l25.1 48 38.5-71.9-48.6-82.6h40.8l28.704 43.2 24.296-43.2h40.8l-67.756 125.137Z" clip-rule="evenodd"/>
  <path fill="#0033A0" d="M341 365c-2.8 0-5.35-.675-7.65-2.025a15.512 15.512 0 0 1-5.4-5.4c-1.3-2.3-1.95-4.825-1.95-7.575 0-2.8.65-5.325 1.95-7.575 1.35-2.25 3.175-4.05 5.475-5.4 2.3-1.35 4.825-2.025 7.575-2.025 2.8 0 5.325.675 7.575 2.025 2.25 1.35 4.05 3.15 5.4 5.4 1.35 2.25 2.025 4.775 2.025 7.575 0 2.75-.675 5.275-2.025 7.575a15.512 15.512 0 0 1-5.4 5.4C346.325 364.325 343.8 365 341 365Z"/>
</svg>
