<svg width="288" height="288" viewBox="0 0 288 288" fill="none" xmlns="http://www.w3.org/2000/svg">
<path d="M20 190H60V128C60 123 60.0002 113 75 113C89.9998 113 90 123 90 128V190L132 274H162L184 230L206 274H206.008C187.228 282.973 166.201 288 144 288C64.471 288 0 223.529 0 144C3.88313e-05 117.251 7.29353 92.2058 20 70.7439V190ZM144 -0.000213623C223.529 -0.000213623 288 64.4709 288 144C288 152.177 287.317 160.195 286.008 168H249L221 224L204 190L260 77.9998H220L195 128L170 77.9998H130L175 168L147 224L130 190V128C130 97.9999 120 77.9998 90 77.9998C70.0378 77.9998 60.0377 87.9622 60 87.9998V27.0281C83.6431 10.0195 112.651 -0.000213623 144 -0.000213623Z" fill="#0033A0"/>
</svg>
