<svg width="450" height="450" viewBox="0 0 450 450" fill="none" xmlns="http://www.w3.org/2000/svg">
<circle cx="225" cy="225" r="225" fill="white"/>
<path d="M345 360C342.2 360 339.65 359.325 337.35 357.975C335.1 356.625 333.3 354.825 331.95 352.575C330.65 350.275 330 347.75 330 345C330 342.2 330.65 339.675 331.95 337.425C333.3 335.175 335.125 333.375 337.425 332.025C339.725 330.675 342.25 330 345 330C347.8 330 350.325 330.675 352.575 332.025C354.825 333.375 356.625 335.175 357.975 337.425C359.325 339.675 360 342.2 360 345C360 347.75 359.325 350.275 357.975 352.575C356.625 354.825 354.825 356.625 352.575 357.975C350.325 359.325 347.8 360 345 360Z" fill="#0033A0"/>
<path d="M90 90V272.907H130.991V215.93C130.991 212.244 131.681 209.054 133.06 206.36C134.44 203.666 136.377 201.574 138.874 200.085C141.37 198.597 144.26 197.852 147.545 197.852C152.537 197.852 156.544 199.518 159.566 202.85C162.588 206.111 164.099 210.471 164.099 215.93V272.907L208.71 360H239.32L259.211 317.251L280.101 360H310.685L360 252.107H319.022L293.279 307.15L280.315 281.414L335.173 164.013H294.01L270.584 214.206L245.791 164.013H204.629L248.15 252.107L222.149 307.15L205.09 272.907V206.36C205.09 198.207 203.316 190.94 199.769 184.56C196.221 178.108 191.393 173.004 185.284 169.247C179.24 165.489 172.376 163.61 164.69 163.61C158.647 163.61 152.669 164.816 146.757 167.226C140.91 169.566 135.655 172.898 130.991 177.222V90H90Z" fill="black"/>
</svg>
