<svg width="450" height="450" viewBox="0 0 450 450" fill="none" xmlns="http://www.w3.org/2000/svg">
<circle cx="225" cy="225" r="225" fill="white"/>
<path d="M345 360C342.2 360 339.65 359.325 337.35 357.975C335.1 356.625 333.3 354.825 331.95 352.575C330.65 350.275 330 347.75 330 345C330 342.2 330.65 339.675 331.95 337.425C333.3 335.175 335.125 333.375 337.425 332.025C339.725 330.675 342.25 330 345 330C347.8 330 350.325 330.675 352.575 332.025C354.825 333.375 356.625 335.175 357.975 337.425C359.325 339.675 360 342.2 360 345C360 347.75 359.325 350.275 357.975 352.575C356.625 354.825 354.825 356.625 352.575 357.975C350.325 359.325 347.8 360 345 360Z" fill="#0033A0"/>
<path d="M240 164H200L245 254L217 310L200 276V214C200 184 190 164 160 164C140 164 130 174 130 174V90H90V276H130V214C130 209 130 199 145 199C160 199 160 209 160 214V276L202 360H232L254 316L276 360H306L360 252H320L291 310L274 276L330 164H290L265 214L240 164Z" fill="black"/>
</svg>
